<?xml version="1.0" encoding="UTF-8" standalone="no"?>
<!DOCTYPE svg PUBLIC "-//W3C//DTD SVG 1.1//EN" "http://www.w3.org/Graphics/SVG/1.1/DTD/svg11.dtd">
<svg width="100%" height="100%" viewBox="0 0 1724 307" version="1.1" xmlns="http://www.w3.org/2000/svg" xmlns:xlink="http://www.w3.org/1999/xlink" xml:space="preserve" xmlns:serif="http://www.serif.com/" style="fill-rule:evenodd;clip-rule:evenodd;stroke-miterlimit:10;">
    <rect id="Artboard1" x="0" y="0" width="2480.32" height="3507.87" style="fill:none;"/>
    <clipPath id="_clip1">
        <rect id="Artboard11" serif:id="Artboard1" x="0" y="0" width="2480.32" height="3507.87"/>
    </clipPath>
    <g clip-path="url(#_clip1)">
        <g transform="matrix(4.16667,0,0,4.16667,440.468,144.427)">
            <path d="M0,9.081L-0.31,9.738C-2.625,14.016 -6.2,16.129 -11.033,16.075C-14.221,16.049 -16.971,14.933 -19.287,12.722C-21.6,10.511 -22.77,7.823 -22.797,4.661C-22.848,1.473 -21.709,-1.257 -19.383,-3.531C-17.056,-5.809 -14.274,-6.97 -11.033,-7.023C-8.72,-7.048 -6.558,-6.445 -4.552,-5.213C-2.649,-4.033 -1.288,-2.546 -0.464,-0.75L-0.041,0.211L-3.358,0.211C-5.005,-2.609 -7.525,-4.057 -10.92,-4.135C-13.186,-4.188 -15.217,-3.362 -17.019,-1.668C-18.896,0.082 -19.835,2.152 -19.835,4.543C-19.835,6.936 -18.961,8.99 -17.211,10.697C-15.464,12.41 -13.392,13.249 -11,13.224C-7.579,13.174 -5.018,11.793 -3.32,9.081L0,9.081Z" style="fill:rgb(65,64,66);fill-rule:nonzero;stroke:rgb(65,64,66);stroke-width:1.03px;"/>
        </g>
        <g transform="matrix(4.16667,0,0,4.16667,536.006,169.76)">
            <path d="M0,-3.2C-0.412,-5.256 -1.376,-6.919 -2.895,-8.193C-4.412,-9.468 -6.228,-10.115 -8.337,-10.142C-10.446,-10.168 -12.293,-9.538 -13.874,-8.252C-15.457,-6.966 -16.455,-5.28 -16.865,-3.2L0,-3.2ZM2.893,-0.494L-16.865,-0.494C-16.634,1.719 -15.697,3.545 -14.048,4.987C-12.403,6.425 -10.459,7.134 -8.221,7.107C-4.746,7.055 -2.265,5.443 -0.771,2.268L2.353,2.268C1.529,4.638 0.142,6.519 -1.813,7.908C-3.767,9.298 -5.941,10.006 -8.331,10.031C-11.338,10.083 -14.001,8.983 -16.313,6.737C-18.628,4.487 -19.811,1.806 -19.863,-1.304C-19.94,-4.592 -18.776,-7.429 -16.373,-9.805C-13.968,-12.184 -11.132,-13.283 -7.866,-13.103C-4.936,-12.924 -2.39,-11.715 -0.23,-9.479C1.852,-7.267 2.893,-4.799 2.893,-2.075L2.893,-0.494Z" style="fill:rgb(65,64,66);fill-rule:nonzero;stroke:rgb(65,64,66);stroke-width:1.03px;"/>
        </g>
        <g transform="matrix(4.16667,0,0,4.16667,644.298,115.631)">
            <path d="M0,22.474L-2.961,22.474L-2.961,9.635C-2.961,7.785 -3.636,6.19 -4.989,4.853C-6.342,3.519 -7.918,2.849 -9.722,2.849C-11.55,2.849 -13.139,3.519 -14.491,4.853C-15.844,6.19 -16.521,7.785 -16.521,9.635L-16.521,22.474L-19.479,22.474L-19.479,9.944C-19.479,7.092 -18.554,4.72 -16.703,2.832C-14.853,0.943 -12.523,0 -9.722,0C-6.943,0 -4.629,0.943 -2.779,2.832C-0.927,4.72 0,7.092 0,9.944L0,22.474Z" style="fill:rgb(65,64,66);fill-rule:nonzero;stroke:rgb(65,64,66);stroke-width:1.03px;"/>
        </g>
        <g transform="matrix(4.16667,0,0,4.16667,845.21,209.273)">
            <path d="M0,-22.474C-2.802,-22.474 -5.131,-21.531 -6.982,-19.642C-8.831,-17.754 -9.758,-15.382 -9.758,-12.53L-9.758,0L-6.799,0L-6.799,-12.839C-6.799,-14.689 -6.121,-16.284 -4.772,-17.621C-3.418,-18.955 -1.83,-19.624 0,-19.624C0.373,-19.624 0.734,-19.596 1.09,-19.538L1.09,-22.426C0.734,-22.458 0.373,-22.474 0,-22.474" style="fill:rgb(65,64,66);fill-rule:nonzero;"/>
        </g>
        <g transform="matrix(4.16667,0,0,4.16667,845.21,209.273)">
            <path d="M0,-22.474C-2.802,-22.474 -5.131,-21.531 -6.982,-19.642C-8.831,-17.754 -9.758,-15.382 -9.758,-12.53L-9.758,0L-6.799,0L-6.799,-12.839C-6.799,-14.689 -6.121,-16.284 -4.772,-17.621C-3.418,-18.955 -1.83,-19.624 0,-19.624C0.373,-19.624 0.734,-19.596 1.09,-19.538L1.09,-22.426C0.734,-22.458 0.373,-22.474 0,-22.474Z" style="fill:none;fill-rule:nonzero;stroke:rgb(65,64,66);stroke-width:1.03px;"/>
        </g>
        <g transform="matrix(4.16667,0,0,4.16667,695.068,77.1542)">
            <path d="M0,32.185C-5.357,32.185 -8.039,29.908 -8.039,25.352L-8.039,0L-5.079,0L-5.079,9.417L0,9.417L0,12.158L-5.079,12.158L-5.079,24.862C-5.079,28.137 -3.385,29.772 0,29.772L0,32.185Z" style="fill:rgb(65,64,66);fill-rule:nonzero;stroke:rgb(65,64,66);stroke-width:1.03px;"/>
        </g>
        <g transform="matrix(4.16667,0,0,4.16667,791.439,159.268)">
            <path d="M0,2.55C0,5.408 -0.918,7.789 -2.758,9.692C-4.596,11.597 -6.917,12.55 -9.719,12.55C-12.526,12.55 -14.846,11.597 -16.687,9.692C-18.523,7.789 -19.442,5.408 -19.442,2.55L-19.442,-10L-16.48,-10L-16.48,2.904C-16.48,4.758 -15.808,6.347 -14.455,7.674C-13.1,9 -11.524,9.662 -9.719,9.662C-7.919,9.662 -6.339,9 -4.987,7.674C-3.636,6.347 -2.959,4.758 -2.959,2.904L-2.959,-10L0,-10L0,2.55Z" style="fill:rgb(65,64,66);fill-rule:nonzero;stroke:rgb(65,64,66);stroke-width:1.03px;"/>
        </g>
        <g transform="matrix(4.16667,0,0,4.16667,942.322,156.485)">
            <path d="M0,2.583C0,5.437 -0.928,7.808 -2.781,9.696C-4.63,11.585 -6.944,12.531 -9.723,12.531C-12.526,12.531 -14.854,11.585 -16.702,9.696C-18.555,7.808 -19.48,5.437 -19.48,2.583L-19.48,-9.948L-16.521,-9.948L-16.521,2.893C-16.521,4.743 -15.844,6.336 -14.495,7.674C-13.141,9.01 -11.548,9.679 -9.723,9.679C-7.922,9.679 -6.341,9.01 -4.991,7.674C-3.639,6.336 -2.961,4.743 -2.961,2.893L-2.961,-9.948L0,-9.948L0,2.583Z" style="fill:rgb(65,64,66);fill-rule:nonzero;stroke:rgb(65,64,66);stroke-width:1.03px;"/>
        </g>
        <g transform="matrix(4.16667,0,0,4.16667,942.281,248.873)">
            <path d="M0,-18.096L0,-10.159C0,-7.219 -1.053,-4.78 -3.159,-2.846C-5.265,-0.912 -7.673,0 -10.386,-0.108C-12.812,-0.217 -14.905,-1.062 -16.666,-2.641C-18.332,-4.167 -19.45,-6.114 -20.019,-8.483L-17.387,-8.483C-16.982,-6.878 -16.081,-5.496 -14.678,-4.337C-13.277,-3.18 -11.75,-2.599 -10.085,-2.599C-8.09,-2.628 -6.362,-3.424 -4.903,-4.992C-3.442,-6.556 -2.711,-8.429 -2.711,-10.609L-2.711,-18.096" style="fill:rgb(65,64,66);fill-rule:nonzero;stroke:rgb(65,64,66);stroke-width:1.03px;"/>
        </g>
        <g transform="matrix(4.16667,0,0,4.16667,1065.43,140.382)">
            <path d="M0,10.756C0,9.697 -0.4,8.874 -1.199,8.288C-1.997,7.704 -3.385,7.196 -5.368,6.774C-7.352,6.351 -8.927,5.842 -10.09,5.249C-11.255,4.656 -12.119,3.953 -12.675,3.133C-13.232,2.314 -13.512,1.339 -13.512,0.212C-13.512,-1.668 -12.716,-3.254 -11.129,-4.553C-9.542,-5.853 -7.513,-6.5 -5.041,-6.5C-2.444,-6.5 -0.337,-5.831 1.279,-4.491C2.895,-3.15 3.703,-1.433 3.777,1.345L-0.162,1.345C-0.234,-0.417 -0.689,-1.343 -1.6,-2.119C-2.51,-2.894 -3.657,-3.284 -5.041,-3.284C-6.467,-3.284 -7.583,-2.974 -8.387,-2.353C-9.191,-1.731 -9.595,-0.92 -9.595,0.084C-9.595,1.03 -9.219,1.743 -8.472,2.222C-7.724,2.702 -6.372,3.161 -4.416,3.599C-2.462,4.036 -0.877,4.556 0.336,5.165C1.552,5.774 2.451,6.503 3.036,7.356C3.622,8.212 3.915,9.252 3.915,10.48C3.915,12.527 3.097,14.168 1.46,15.404C-0.177,16.638 -2.304,17.256 -4.914,17.256C-6.749,17.256 -8.374,16.931 -9.785,16.283C-11.195,15.632 -12.3,14.727 -13.097,13.561C-13.896,12.396 -14.3,10.745 -14.3,9.389L-10.384,9.389C-10.313,10.703 -9.779,12.134 -8.799,12.905C-7.817,13.674 -6.523,14.059 -4.914,14.059C-3.432,14.059 -2.243,13.76 -1.346,13.157C-0.45,12.56 0,11.758 0,10.756" style="fill:rgb(65,64,66);fill-rule:nonzero;"/>
        </g>
        <g transform="matrix(4.16667,0,0,4.16667,1603.91,209.031)">
            <path d="M0,-22.477C-2.804,-22.477 -5.131,-21.532 -6.982,-19.644C-8.834,-17.754 -9.758,-15.382 -9.758,-12.531L-9.758,0L-6.799,0L-6.799,-12.839C-6.799,-14.69 -6.122,-16.285 -4.771,-17.623C-3.417,-18.957 -1.828,-19.627 0,-19.627C0.373,-19.627 0.733,-19.597 1.088,-19.54L1.088,-22.427C0.732,-22.46 0.369,-22.477 0,-22.477" style="fill:rgb(65,64,66);fill-rule:nonzero;"/>
        </g>
        <g transform="matrix(4.16667,0,0,4.16667,1603.91,209.031)">
            <path d="M0,-22.477C-2.804,-22.477 -5.131,-21.532 -6.982,-19.644C-8.834,-17.754 -9.758,-15.382 -9.758,-12.531L-9.758,0L-6.799,0L-6.799,-12.839C-6.799,-14.69 -6.122,-16.285 -4.771,-17.623C-3.417,-18.957 -1.828,-19.627 0,-19.627C0.373,-19.627 0.733,-19.597 1.088,-19.54L1.088,-22.427C0.732,-22.46 0.369,-22.477 0,-22.477Z" style="fill:none;fill-rule:nonzero;stroke:rgb(65,64,66);stroke-width:1.03px;"/>
        </g>
        <g transform="matrix(4.16667,0,0,4.16667,1174.82,164.094)">
            <path d="M0,-0.43C-0.077,-2.742 -0.908,-4.722 -2.49,-6.371C-4.07,-8.018 -5.979,-8.842 -8.218,-8.842C-10.557,-8.866 -12.549,-8.05 -14.195,-6.392C-15.839,-4.732 -16.678,-2.731 -16.702,-0.389C-16.754,1.925 -15.994,3.952 -14.428,5.69C-12.859,7.424 -10.943,8.331 -8.68,8.41C-6.262,8.537 -4.2,7.7 -2.49,5.901C-0.78,4.101 0.051,1.991 0,-0.43M2.924,-0.196C2.924,2.966 1.773,5.697 -0.525,7.999C-2.827,10.301 -5.558,11.4 -8.717,11.296C-11.773,11.22 -14.364,10.062 -16.484,7.827C-18.601,5.589 -19.664,2.926 -19.664,-0.159C-19.664,-3.373 -18.52,-6.13 -16.232,-8.431C-13.945,-10.732 -11.223,-11.83 -8.061,-11.728C-5.004,-11.626 -2.408,-10.449 -0.275,-8.199C1.858,-5.949 2.924,-3.281 2.924,-0.196" style="fill:rgb(65,64,66);fill-rule:nonzero;"/>
        </g>
        <g transform="matrix(4.16667,0,0,4.16667,1174.82,164.094)">
            <path d="M0,-0.43C-0.077,-2.742 -0.908,-4.722 -2.49,-6.371C-4.07,-8.018 -5.979,-8.842 -8.218,-8.842C-10.557,-8.866 -12.549,-8.05 -14.195,-6.392C-15.839,-4.732 -16.678,-2.731 -16.702,-0.389C-16.754,1.925 -15.994,3.952 -14.428,5.69C-12.859,7.424 -10.943,8.331 -8.68,8.41C-6.262,8.537 -4.2,7.7 -2.49,5.901C-0.78,4.101 0.051,1.991 0,-0.43ZM2.924,-0.196C2.924,2.966 1.773,5.697 -0.525,7.999C-2.827,10.301 -5.558,11.4 -8.717,11.296C-11.773,11.22 -14.364,10.062 -16.484,7.827C-18.601,5.589 -19.664,2.926 -19.664,-0.159C-19.664,-3.373 -18.52,-6.13 -16.232,-8.431C-13.945,-10.732 -11.223,-11.83 -8.061,-11.728C-5.004,-11.626 -2.408,-10.449 -0.275,-8.199C1.858,-5.949 2.924,-3.281 2.924,-0.196Z" style="fill:none;fill-rule:nonzero;stroke:rgb(65,64,66);stroke-width:1.03px;"/>
        </g>
        <g transform="matrix(4.16667,0,0,4.16667,1290.06,76.9146)">
            <path d="M0,32.181C-5.359,32.181 -8.039,29.907 -8.039,25.35L-8.039,0L-5.08,0L-5.08,9.414L0,9.414L0,12.156L-5.08,12.156L-5.08,24.859C-5.08,28.134 -3.386,29.77 0,29.77L0,32.181Z" style="fill:rgb(65,64,66);fill-rule:nonzero;stroke:rgb(65,64,66);stroke-width:1.03px;"/>
        </g>
        <g transform="matrix(4.16667,0,0,4.16667,1535.99,164.123)">
            <path d="M0,-0.473C-0.054,-2.787 -0.876,-4.768 -2.469,-6.416C-4.063,-8.062 -5.981,-8.887 -8.215,-8.887C-10.558,-8.887 -12.551,-8.062 -14.195,-6.416C-15.843,-4.768 -16.679,-2.776 -16.702,-0.437C-16.753,1.881 -15.988,3.909 -14.407,5.643C-12.829,7.379 -10.916,8.299 -8.681,8.403C-6.262,8.506 -4.199,7.662 -2.491,5.877C-0.78,4.087 0.051,1.969 0,-0.473M2.924,-0.247L2.924,10.778L0,10.778L0,7.344C-2.381,10.079 -5.302,11.392 -8.758,11.289C-11.778,11.186 -14.352,10.018 -16.477,7.78C-18.602,5.543 -19.662,2.882 -19.662,-0.203C-19.662,-3.418 -18.521,-6.173 -16.232,-8.475C-13.944,-10.778 -11.208,-11.865 -8.023,-11.736C-4.939,-11.633 -2.317,-10.456 -0.161,-8.21C1.999,-5.959 3.026,-3.306 2.924,-0.247" style="fill:rgb(65,64,66);fill-rule:nonzero;"/>
        </g>
        <g transform="matrix(4.16667,0,0,4.16667,1535.99,164.123)">
            <path d="M0,-0.473C-0.054,-2.787 -0.876,-4.768 -2.469,-6.416C-4.063,-8.062 -5.981,-8.887 -8.215,-8.887C-10.558,-8.887 -12.551,-8.062 -14.195,-6.416C-15.843,-4.768 -16.679,-2.776 -16.702,-0.437C-16.753,1.881 -15.988,3.909 -14.407,5.643C-12.829,7.379 -10.916,8.299 -8.681,8.403C-6.262,8.506 -4.199,7.662 -2.491,5.877C-0.78,4.087 0.051,1.969 0,-0.473ZM2.924,-0.247L2.924,10.778L0,10.778L0,7.344C-2.381,10.079 -5.302,11.392 -8.758,11.289C-11.778,11.186 -14.352,10.018 -16.477,7.78C-18.602,5.543 -19.662,2.882 -19.662,-0.203C-19.662,-3.418 -18.521,-6.173 -16.232,-8.475C-13.944,-10.778 -11.208,-11.865 -8.023,-11.736C-4.939,-11.633 -2.317,-10.456 -0.161,-8.21C1.999,-5.959 3.026,-3.306 2.924,-0.247Z" style="fill:none;fill-rule:nonzero;stroke:rgb(65,64,66);stroke-width:1.03px;"/>
        </g>
        <g transform="matrix(4.16667,0,0,4.16667,1690.23,169.502)">
            <path d="M0,-3.193C-0.415,-5.254 -1.379,-6.917 -2.896,-8.19C-4.415,-9.464 -6.229,-10.113 -8.337,-10.139C-10.448,-10.164 -12.292,-9.535 -13.875,-8.247C-15.459,-6.964 -16.458,-5.279 -16.867,-3.193L0,-3.193ZM2.892,-0.491L-16.867,-0.491C-16.637,1.722 -15.695,3.548 -14.049,4.989C-12.402,6.429 -10.461,7.137 -8.22,7.113C-4.749,7.06 -2.269,5.447 -0.773,2.271L2.35,2.271C1.53,4.642 0.14,6.521 -1.813,7.913C-3.768,9.302 -5.941,10.008 -8.331,10.036C-11.341,10.086 -14,8.989 -16.315,6.738C-18.63,4.489 -19.812,1.808 -19.863,-1.302C-19.939,-4.589 -18.777,-7.423 -16.374,-9.802C-13.969,-12.182 -11.133,-13.279 -7.867,-13.099C-4.936,-12.92 -2.391,-11.711 -0.231,-9.474C1.849,-7.262 2.892,-4.796 2.892,-2.072L2.892,-0.491Z" style="fill:rgb(65,64,66);fill-rule:nonzero;stroke:rgb(65,64,66);stroke-width:1.03px;"/>
        </g>
        <g transform="matrix(4.16667,0,0,4.16667,1438.28,157.305)">
            <path d="M0,3.561C0,6.279 -0.787,8.465 -2.365,10.118C-3.838,11.667 -5.756,12.545 -8.121,12.75C-11.272,13.002 -13.788,11.656 -15.67,8.707C-17.551,11.656 -20.067,13.002 -23.221,12.75C-25.584,12.545 -27.492,11.667 -28.941,10.118C-30.491,8.465 -31.265,6.279 -31.265,3.561L-31.265,-9.441L-28.252,-9.441L-28.252,3.903C-28.252,5.606 -27.783,7.048 -26.842,8.23C-25.903,9.413 -24.644,10.002 -23.067,10.002C-21.465,10.002 -20.085,9.483 -18.93,8.442C-17.774,7.399 -17.196,6.103 -17.196,4.551L-17.196,-9.441L-14.146,-9.441L-14.146,4.551C-14.146,6.103 -13.568,7.399 -12.41,8.442C-11.252,9.483 -9.874,10.002 -8.273,10.002C-6.698,10.002 -5.426,9.406 -4.46,8.212C-3.496,7.018 -3.012,5.581 -3.012,3.903L-3.012,-9.441L0,-9.441L0,3.561Z" style="fill:rgb(65,64,66);fill-rule:nonzero;stroke:rgb(65,64,66);stroke-width:1.03px;"/>
        </g>
        <g transform="matrix(4.16667,0,0,4.16667,1225.36,195.094)">
            <path d="M0,-29.192C0.716,-29.876 1.927,-30.263 3.643,-30.344L4.5,-30.344L4.5,-33.127L3.648,-33.127C1.152,-33.127 -0.891,-32.453 -2.477,-31.102C-4.067,-29.752 -4.863,-27.834 -4.863,-25.352L-4.863,3.935L-1.629,3.935L-1.629,-16.526L4.5,-16.526L4.5,-19.389L-1.629,-19.389L-1.629,-25.892C-1.629,-26.993 -1.084,-28.09 0,-29.192" style="fill:rgb(65,64,66);fill-rule:nonzero;"/>
        </g>
        <g transform="matrix(4.16667,0,0,4.16667,1225.36,195.094)">
            <path d="M0,-29.192C0.716,-29.876 1.927,-30.263 3.643,-30.344L4.5,-30.344L4.5,-33.127L3.648,-33.127C1.152,-33.127 -0.891,-32.453 -2.477,-31.102C-4.067,-29.752 -4.863,-27.834 -4.863,-25.352L-4.863,3.935L-1.629,3.935L-1.629,-16.526L4.5,-16.526L4.5,-19.389L-1.629,-19.389L-1.629,-25.892C-1.629,-26.993 -1.084,-28.09 0,-29.192Z" style="fill:none;fill-rule:nonzero;stroke:rgb(65,64,66);stroke-width:0.98px;"/>
        </g>
        <g transform="matrix(4.16667,0,0,4.16667,152.029,73.9792)">
            <path d="M0,37.991C0,37.991 19.093,37.897 18.706,16.761C18.706,16.761 18.534,-11.715 54.746,-17.755L54.746,0.891C54.746,0.891 41.929,2.324 38.539,12.853L37.234,20.345C37.234,20.345 34.358,55.026 0,55.746L0,37.991ZM0.003,0.519C3.813,0.519 7.343,1.659 10.303,3.61L19.593,-11.53C13.934,-15.14 7.203,-17.231 0.003,-17.231C-20.157,-17.231 -36.487,-0.901 -36.487,19.26C-36.487,38.829 -21.077,54.809 -1.717,55.71L-1.717,37.909C-11.257,37.039 -18.737,29.019 -18.737,19.26C-18.737,8.909 -10.347,0.519 0.003,0.519" style="fill:rgb(112,63,152);"/>
        </g>
        <g transform="matrix(4.16667,0,0,4.16667,430.768,256.26)">
            <path d="M0,7.874C-1.13,7.885 -2.108,7.504 -2.934,6.727C-3.76,5.949 -4.173,5.017 -4.173,3.931C-4.173,2.842 -3.731,1.904 -2.845,1.108C-1.992,0.336 -1.033,-0.037 0.035,-0.014C1.64,0.022 2.83,0.686 3.608,1.979L5.176,1.979L4.975,1.543C4.585,0.726 3.943,0.049 3.047,-0.486C2.102,-1.047 1.083,-1.319 -0.009,-1.307C-1.535,-1.285 -2.85,-0.756 -3.945,0.274C-5.043,1.308 -5.58,2.545 -5.558,3.992C-5.543,5.426 -4.991,6.644 -3.9,7.645C-2.81,8.65 -1.512,9.157 -0.009,9.168C2.272,9.193 3.958,8.234 5.047,6.3L5.192,6.003L3.626,6.003C2.824,7.227 1.615,7.851 0,7.874" style="fill:rgb(112,63,152);fill-rule:nonzero;"/>
        </g>
        <g transform="matrix(4.16667,0,0,4.16667,430.768,256.26)">
            <path d="M0,7.874C-1.13,7.885 -2.108,7.504 -2.934,6.727C-3.76,5.949 -4.173,5.017 -4.173,3.931C-4.173,2.842 -3.731,1.904 -2.845,1.108C-1.992,0.336 -1.033,-0.037 0.035,-0.014C1.64,0.022 2.83,0.686 3.608,1.979L5.176,1.979L4.975,1.543C4.585,0.726 3.943,0.049 3.047,-0.486C2.102,-1.047 1.083,-1.319 -0.009,-1.307C-1.535,-1.285 -2.85,-0.756 -3.945,0.274C-5.043,1.308 -5.58,2.545 -5.558,3.992C-5.543,5.426 -4.991,6.644 -3.9,7.645C-2.81,8.65 -1.512,9.157 -0.009,9.168C2.272,9.193 3.958,8.234 5.047,6.3L5.192,6.003L3.626,6.003C2.824,7.227 1.615,7.851 0,7.874Z" style="fill:none;fill-rule:nonzero;stroke:rgb(112,63,152);stroke-width:0.39px;"/>
        </g>
        <g transform="matrix(4.16667,0,0,4.16667,465.018,275.56)">
            <path d="M0,-1.445C0.194,-2.39 0.665,-3.154 1.409,-3.737C2.156,-4.317 3.026,-4.604 4.018,-4.594C5.014,-4.583 5.868,-4.286 6.585,-3.712C7.299,-3.132 7.755,-2.379 7.948,-1.445L0,-1.445ZM4.236,-5.939C2.699,-6.023 1.362,-5.523 0.228,-4.445C-0.907,-3.367 -1.455,-2.081 -1.418,-0.588C-1.393,0.823 -0.836,2.037 0.254,3.059C1.347,4.077 2.602,4.578 4.018,4.554C5.148,4.542 6.172,4.221 7.093,3.593C8.014,2.962 8.668,2.111 9.059,1.038L7.584,1.038C6.881,2.473 5.712,3.201 4.074,3.225C3.019,3.237 2.104,2.916 1.328,2.263C0.551,1.609 0.111,0.782 0,-0.221L9.313,-0.221L9.313,-0.938C9.313,-2.172 8.822,-3.292 7.838,-4.296C6.821,-5.311 5.621,-5.859 4.236,-5.939" style="fill:rgb(112,63,152);fill-rule:nonzero;"/>
        </g>
        <g transform="matrix(4.16667,0,0,4.16667,465.018,275.56)">
            <path d="M0,-1.445C0.194,-2.39 0.665,-3.154 1.409,-3.737C2.156,-4.317 3.026,-4.604 4.018,-4.594C5.014,-4.583 5.868,-4.286 6.585,-3.712C7.299,-3.132 7.755,-2.379 7.948,-1.445L0,-1.445ZM4.236,-5.939C2.699,-6.023 1.362,-5.523 0.228,-4.445C-0.907,-3.367 -1.455,-2.081 -1.418,-0.588C-1.393,0.823 -0.836,2.037 0.254,3.059C1.347,4.077 2.602,4.578 4.018,4.554C5.148,4.542 6.172,4.221 7.093,3.593C8.014,2.962 8.668,2.111 9.059,1.038L7.584,1.038C6.881,2.473 5.712,3.201 4.074,3.225C3.019,3.237 2.104,2.916 1.328,2.263C0.551,1.609 0.111,0.782 0,-0.221L9.313,-0.221L9.313,-0.938C9.313,-2.172 8.822,-3.292 7.838,-4.296C6.821,-5.311 5.621,-5.859 4.236,-5.939Z" style="fill:none;fill-rule:nonzero;stroke:rgb(112,63,152);stroke-width:0.39px;"/>
        </g>
        <g transform="matrix(4.16667,0,0,4.16667,529.531,293.519)">
            <path d="M0,-10.197C-1.323,-10.197 -2.418,-9.77 -3.293,-8.914C-4.164,-8.056 -4.604,-6.981 -4.604,-5.687L-4.604,0L-3.22,0L-3.22,-5.825C-3.22,-6.665 -2.901,-7.388 -2.259,-7.994C-1.62,-8.601 -0.867,-8.904 0,-8.904C0.854,-8.904 1.6,-8.601 2.241,-7.994C2.881,-7.388 3.2,-6.665 3.2,-5.825L3.2,0L4.583,0L4.583,-5.687C4.583,-6.981 4.145,-8.056 3.273,-8.914C2.398,-9.77 1.309,-10.197 0,-10.197" style="fill:rgb(112,63,152);fill-rule:nonzero;"/>
        </g>
        <g transform="matrix(4.16667,0,0,4.16667,529.531,293.519)">
            <path d="M0,-10.197C-1.323,-10.197 -2.418,-9.77 -3.293,-8.914C-4.164,-8.056 -4.604,-6.981 -4.604,-5.687L-4.604,0L-3.22,0L-3.22,-5.825C-3.22,-6.665 -2.901,-7.388 -2.259,-7.994C-1.62,-8.601 -0.867,-8.904 0,-8.904C0.854,-8.904 1.6,-8.601 2.241,-7.994C2.881,-7.388 3.2,-6.665 3.2,-5.825L3.2,0L4.583,0L4.583,-5.687C4.583,-6.981 4.145,-8.056 3.273,-8.914C2.398,-9.77 1.309,-10.197 0,-10.197Z" style="fill:none;fill-rule:nonzero;stroke:rgb(112,63,152);stroke-width:0.39px;"/>
        </g>
        <g transform="matrix(4.16667,0,0,4.16667,630.398,261.11)">
            <path d="M0,5.568C-0.81,6.39 -1.785,6.768 -2.928,6.71C-3.998,6.676 -4.903,6.263 -5.645,5.471C-6.383,4.681 -6.743,3.759 -6.719,2.704C-6.708,1.639 -6.312,0.729 -5.535,-0.027C-4.758,-0.782 -3.816,-1.155 -2.708,-1.144C-1.652,-1.144 -0.749,-0.769 0,-0.018C0.747,0.732 1.138,1.634 1.174,2.687C1.199,3.788 0.806,4.748 0,5.568M-2.626,-2.438C-4.12,-2.483 -5.405,-1.985 -6.484,-0.942C-7.562,0.101 -8.102,1.353 -8.102,2.807C-8.102,4.208 -7.602,5.415 -6.602,6.43C-5.602,7.445 -4.379,7.971 -2.936,8.004C-1.443,8.051 -0.156,7.551 0.929,6.509C2.013,5.466 2.555,4.226 2.555,2.793C2.555,1.394 2.053,0.184 1.047,-0.838C0.04,-1.856 -1.186,-2.391 -2.626,-2.438" style="fill:rgb(112,63,152);fill-rule:nonzero;"/>
        </g>
        <g transform="matrix(4.16667,0,0,4.16667,630.398,261.11)">
            <path d="M0,5.568C-0.81,6.39 -1.785,6.768 -2.928,6.71C-3.998,6.676 -4.903,6.263 -5.645,5.471C-6.383,4.681 -6.743,3.759 -6.719,2.704C-6.708,1.639 -6.312,0.729 -5.535,-0.027C-4.758,-0.782 -3.816,-1.155 -2.708,-1.144C-1.652,-1.144 -0.749,-0.769 0,-0.018C0.747,0.732 1.138,1.634 1.174,2.687C1.199,3.788 0.806,4.748 0,5.568ZM-2.626,-2.438C-4.12,-2.483 -5.405,-1.985 -6.484,-0.942C-7.562,0.101 -8.102,1.353 -8.102,2.807C-8.102,4.208 -7.602,5.415 -6.602,6.43C-5.602,7.445 -4.379,7.971 -2.936,8.004C-1.443,8.051 -0.156,7.551 0.929,6.509C2.013,5.466 2.555,4.226 2.555,2.793C2.555,1.394 2.053,0.184 1.047,-0.838C0.04,-1.856 -1.186,-2.391 -2.626,-2.438Z" style="fill:none;fill-rule:nonzero;stroke:rgb(112,63,152);stroke-width:0.39px;"/>
        </g>
        <g transform="matrix(4.16667,0,0,4.16667,656.168,287.469)">
            <path d="M0,-12.478C0.306,-12.772 0.824,-12.936 1.557,-12.972L1.923,-12.972L1.923,-14.161L1.561,-14.161C0.493,-14.161 -0.378,-13.871 -1.061,-13.294C-1.738,-12.719 -2.078,-11.899 -2.078,-10.837L-2.078,1.683L-0.695,1.683L-0.695,-7.065L1.923,-7.065L1.923,-8.289L-0.695,-8.289L-0.695,-11.069C-0.695,-11.538 -0.463,-12.009 0,-12.478" style="fill:rgb(112,63,152);fill-rule:nonzero;"/>
        </g>
        <g transform="matrix(4.16667,0,0,4.16667,656.168,287.469)">
            <path d="M0,-12.478C0.306,-12.772 0.824,-12.936 1.557,-12.972L1.923,-12.972L1.923,-14.161L1.561,-14.161C0.493,-14.161 -0.378,-13.871 -1.061,-13.294C-1.738,-12.719 -2.078,-11.899 -2.078,-10.837L-2.078,1.683L-0.695,1.683L-0.695,-7.065L1.923,-7.065L1.923,-8.289L-0.695,-8.289L-0.695,-11.069C-0.695,-11.538 -0.463,-12.009 0,-12.478Z" style="fill:none;fill-rule:nonzero;stroke:rgb(112,63,152);stroke-width:0.39px;"/>
        </g>
        <g transform="matrix(4.16667,0,0,4.16667,583.71,262.577)">
            <path d="M0,4.862C0,4.383 -0.186,4.011 -0.562,3.748C-0.937,3.481 -1.591,3.255 -2.523,3.062C-3.454,2.872 -4.193,2.641 -4.742,2.373C-5.29,2.106 -5.692,1.787 -5.956,1.417C-6.216,1.047 -6.35,0.607 -6.35,0.095C-6.35,-0.751 -5.975,-1.47 -5.227,-2.056C-4.483,-2.644 -3.53,-2.936 -2.368,-2.936C-1.146,-2.936 -0.157,-2.635 0.603,-2.028C1.362,-1.42 1.742,-0.645 1.778,0.608L-0.076,0.608C-0.109,-0.187 -0.321,-0.606 -0.752,-0.957C-1.179,-1.308 -1.719,-1.483 -2.368,-1.483C-3.039,-1.483 -3.561,-1.344 -3.94,-1.061C-4.318,-0.781 -4.507,-0.414 -4.507,0.04C-4.507,0.467 -4.33,0.791 -3.981,1.005C-3.627,1.222 -2.992,1.43 -2.076,1.628C-1.157,1.826 -0.413,2.061 0.159,2.336C0.73,2.609 1.155,2.94 1.428,3.326C1.704,3.713 1.841,4.184 1.841,4.736C1.841,5.661 1.455,6.404 0.687,6.961C-0.083,7.52 -1.081,7.798 -2.31,7.798C-3.171,7.798 -3.934,7.652 -4.597,7.36C-5.259,7.066 -5.78,6.655 -6.153,6.129C-6.529,5.603 -6.718,4.856 -6.718,4.245L-4.878,4.245C-4.846,4.839 -4.597,5.486 -4.134,5.832C-3.672,6.18 -3.064,6.355 -2.31,6.355C-1.613,6.355 -1.053,6.219 -0.632,5.947C-0.212,5.677 0,5.314 0,4.862" style="fill:rgb(112,63,152);fill-rule:nonzero;"/>
        </g>
        <g transform="matrix(4.16667,0,0,4.16667,365.231,277.181)">
            <path d="M0,0.658C-0.363,0.929 -0.544,1.298 -0.544,1.764C-0.544,1.998 -0.495,2.203 -0.397,2.38C-0.3,2.557 -0.167,2.709 0,2.835C0.167,2.961 0.36,3.057 0.579,3.122C0.798,3.188 1.028,3.22 1.27,3.22C1.604,3.22 1.918,3.171 2.212,3.073C2.505,2.975 2.761,2.84 2.979,2.667C3.198,2.494 3.37,2.289 3.496,2.051C3.621,1.813 3.684,1.55 3.684,1.26L3.684,0.56C3.414,0.486 3.104,0.416 2.756,0.35C2.407,0.285 2.009,0.252 1.563,0.252C0.884,0.252 0.363,0.387 0,0.658M0.345,-2.317C-0.005,-2.219 -0.348,-2.091 -0.684,-1.932L-1.006,-2.814C-0.605,-3 -0.199,-3.147 0.212,-3.255C0.623,-3.362 1.094,-3.416 1.626,-3.416C2.615,-3.416 3.376,-3.171 3.908,-2.681C4.44,-2.191 4.706,-1.465 4.706,-0.504L4.706,3.92L3.67,3.92L3.67,2.828C3.418,3.155 3.08,3.444 2.655,3.696C2.23,3.948 1.696,4.074 1.052,4.074C0.716,4.074 0.387,4.028 0.065,3.934C-0.257,3.841 -0.546,3.699 -0.803,3.507C-1.06,3.316 -1.265,3.08 -1.419,2.8C-1.573,2.52 -1.65,2.189 -1.65,1.806C-1.65,1.424 -1.576,1.085 -1.426,0.791C-1.277,0.497 -1.064,0.252 -0.789,0.056C-0.514,-0.14 -0.187,-0.289 0.191,-0.392C0.569,-0.494 0.986,-0.546 1.444,-0.546C1.911,-0.546 2.316,-0.518 2.662,-0.462C3.007,-0.406 3.343,-0.331 3.67,-0.238L3.67,-0.49C3.67,-1.143 3.481,-1.635 3.103,-1.967C2.725,-2.298 2.195,-2.464 1.514,-2.464C1.084,-2.464 0.695,-2.415 0.345,-2.317" style="fill:rgb(65,64,66);fill-rule:nonzero;"/>
        </g>
        <g transform="matrix(4.16667,0,0,4.16667,365.231,277.181)">
            <path d="M0,0.658C-0.363,0.929 -0.544,1.298 -0.544,1.764C-0.544,1.998 -0.495,2.203 -0.397,2.38C-0.3,2.557 -0.167,2.709 0,2.835C0.167,2.961 0.36,3.057 0.579,3.122C0.798,3.188 1.028,3.22 1.27,3.22C1.604,3.22 1.918,3.171 2.212,3.073C2.505,2.975 2.761,2.84 2.979,2.667C3.198,2.494 3.37,2.289 3.496,2.051C3.621,1.813 3.684,1.55 3.684,1.26L3.684,0.56C3.414,0.486 3.104,0.416 2.756,0.35C2.407,0.285 2.009,0.252 1.563,0.252C0.884,0.252 0.363,0.387 0,0.658ZM0.345,-2.317C-0.005,-2.219 -0.348,-2.091 -0.684,-1.932L-1.006,-2.814C-0.605,-3 -0.199,-3.147 0.212,-3.255C0.623,-3.362 1.094,-3.416 1.626,-3.416C2.615,-3.416 3.376,-3.171 3.908,-2.681C4.44,-2.191 4.706,-1.465 4.706,-0.504L4.706,3.92L3.67,3.92L3.67,2.828C3.418,3.155 3.08,3.444 2.655,3.696C2.23,3.948 1.696,4.074 1.052,4.074C0.716,4.074 0.387,4.028 0.065,3.934C-0.257,3.841 -0.546,3.699 -0.803,3.507C-1.06,3.316 -1.265,3.08 -1.419,2.8C-1.573,2.52 -1.65,2.189 -1.65,1.806C-1.65,1.424 -1.576,1.085 -1.426,0.791C-1.277,0.497 -1.064,0.252 -0.789,0.056C-0.514,-0.14 -0.187,-0.289 0.191,-0.392C0.569,-0.494 0.986,-0.546 1.444,-0.546C1.911,-0.546 2.316,-0.518 2.662,-0.462C3.007,-0.406 3.343,-0.331 3.67,-0.238L3.67,-0.49C3.67,-1.143 3.481,-1.635 3.103,-1.967C2.725,-2.298 2.195,-2.464 1.514,-2.464C1.084,-2.464 0.695,-2.415 0.345,-2.317Z" style="fill:none;fill-rule:nonzero;stroke:rgb(65,64,66);stroke-width:0.13px;"/>
        </g>
        <g transform="matrix(4.16667,0,0,4.16667,704.298,264.369)">
            <path d="M0,6.766C-0.462,7.031 -1.034,7.163 -1.715,7.163C-2.247,7.163 -2.74,7.063 -3.192,6.863C-3.645,6.662 -4.037,6.391 -4.368,6.051C-4.7,5.71 -4.958,5.311 -5.145,4.853C-5.332,4.396 -5.425,3.911 -5.425,3.397C-5.425,2.884 -5.332,2.396 -5.145,1.934C-4.958,1.473 -4.7,1.069 -4.368,0.724C-4.037,0.378 -3.645,0.105 -3.192,-0.095C-2.74,-0.296 -2.247,-0.397 -1.715,-0.397C-1.37,-0.397 -1.057,-0.364 -0.777,-0.298C-0.497,-0.233 -0.241,-0.142 -0.007,-0.026C0.226,0.091 0.441,0.229 0.637,0.388C0.833,0.546 1.015,0.714 1.183,0.891L0.469,1.647C0.179,1.349 -0.136,1.092 -0.476,0.877C-0.817,0.663 -1.234,0.556 -1.729,0.556C-2.093,0.556 -2.434,0.628 -2.751,0.772C-3.068,0.916 -3.344,1.117 -3.577,1.372C-3.811,1.628 -3.993,1.926 -4.123,2.266C-4.254,2.606 -4.319,2.972 -4.319,3.363C-4.319,3.754 -4.251,4.121 -4.116,4.466C-3.981,4.81 -3.794,5.111 -3.556,5.367C-3.318,5.622 -3.038,5.823 -2.716,5.967C-2.394,6.112 -2.042,6.183 -1.659,6.183C-1.192,6.183 -0.78,6.081 -0.42,5.875C-0.061,5.67 0.264,5.413 0.553,5.105L1.239,5.749C0.875,6.162 0.462,6.501 0,6.766" style="fill:rgb(65,64,66);fill-rule:nonzero;"/>
        </g>
        <g transform="matrix(4.16667,0,0,4.16667,704.298,264.369)">
            <path d="M0,6.766C-0.462,7.031 -1.034,7.163 -1.715,7.163C-2.247,7.163 -2.74,7.063 -3.192,6.863C-3.645,6.662 -4.037,6.391 -4.368,6.051C-4.7,5.71 -4.958,5.311 -5.145,4.853C-5.332,4.396 -5.425,3.911 -5.425,3.397C-5.425,2.884 -5.332,2.396 -5.145,1.934C-4.958,1.473 -4.7,1.069 -4.368,0.724C-4.037,0.378 -3.645,0.105 -3.192,-0.095C-2.74,-0.296 -2.247,-0.397 -1.715,-0.397C-1.37,-0.397 -1.057,-0.364 -0.777,-0.298C-0.497,-0.233 -0.241,-0.142 -0.007,-0.026C0.226,0.091 0.441,0.229 0.637,0.388C0.833,0.546 1.015,0.714 1.183,0.891L0.469,1.647C0.179,1.349 -0.136,1.092 -0.476,0.877C-0.817,0.663 -1.234,0.556 -1.729,0.556C-2.093,0.556 -2.434,0.628 -2.751,0.772C-3.068,0.916 -3.344,1.117 -3.577,1.372C-3.811,1.628 -3.993,1.926 -4.123,2.266C-4.254,2.606 -4.319,2.972 -4.319,3.363C-4.319,3.754 -4.251,4.121 -4.116,4.466C-3.981,4.81 -3.794,5.111 -3.556,5.367C-3.318,5.622 -3.038,5.823 -2.716,5.967C-2.394,6.112 -2.042,6.183 -1.659,6.183C-1.192,6.183 -0.78,6.081 -0.42,5.875C-0.061,5.67 0.264,5.413 0.553,5.105L1.239,5.749C0.875,6.162 0.462,6.501 0,6.766Z" style="fill:none;fill-rule:nonzero;stroke:rgb(65,64,66);stroke-width:0.13px;"/>
        </g>
        <g transform="matrix(4.16667,0,0,4.16667,740.114,283.031)">
            <path d="M0,-2.192C-0.136,-2.536 -0.325,-2.837 -0.567,-3.092C-0.81,-3.348 -1.095,-3.551 -1.421,-3.7C-1.748,-3.849 -2.103,-3.923 -2.485,-3.923C-2.877,-3.923 -3.236,-3.851 -3.563,-3.707C-3.89,-3.563 -4.167,-3.362 -4.396,-3.107C-4.625,-2.851 -4.805,-2.553 -4.935,-2.213C-5.066,-1.873 -5.131,-1.507 -5.131,-1.116C-5.131,-0.725 -5.063,-0.358 -4.928,-0.013C-4.793,0.331 -4.606,0.629 -4.368,0.881C-4.13,1.132 -3.848,1.332 -3.521,1.481C-3.194,1.63 -2.84,1.704 -2.457,1.704C-2.065,1.704 -1.706,1.633 -1.379,1.488C-1.053,1.344 -0.772,1.146 -0.539,0.894C-0.306,0.643 -0.124,0.348 0.007,0.008C0.137,-0.332 0.203,-0.697 0.203,-1.088C0.203,-1.48 0.135,-1.847 0,-2.192M1.022,0.353C0.831,0.815 0.567,1.219 0.231,1.564C-0.105,1.91 -0.506,2.183 -0.973,2.384C-1.44,2.584 -1.944,2.684 -2.485,2.684C-3.026,2.684 -3.526,2.584 -3.983,2.384C-4.44,2.183 -4.837,1.912 -5.173,1.572C-5.509,1.231 -5.771,0.832 -5.957,0.374C-6.144,-0.083 -6.237,-0.568 -6.237,-1.082C-6.237,-1.595 -6.144,-2.083 -5.957,-2.545C-5.771,-3.006 -5.509,-3.41 -5.173,-3.755C-4.837,-4.101 -4.438,-4.374 -3.976,-4.574C-3.514,-4.775 -3.008,-4.876 -2.457,-4.876C-1.916,-4.876 -1.414,-4.775 -0.952,-4.574C-0.49,-4.374 -0.091,-4.103 0.245,-3.762C0.581,-3.421 0.842,-3.023 1.029,-2.566C1.215,-2.108 1.309,-1.623 1.309,-1.109C1.309,-0.596 1.213,-0.109 1.022,0.353" style="fill:rgb(65,64,66);fill-rule:nonzero;"/>
        </g>
        <g transform="matrix(4.16667,0,0,4.16667,740.114,283.031)">
            <path d="M0,-2.192C-0.136,-2.536 -0.325,-2.837 -0.567,-3.092C-0.81,-3.348 -1.095,-3.551 -1.421,-3.7C-1.748,-3.849 -2.103,-3.923 -2.485,-3.923C-2.877,-3.923 -3.236,-3.851 -3.563,-3.707C-3.89,-3.563 -4.167,-3.362 -4.396,-3.107C-4.625,-2.851 -4.805,-2.553 -4.935,-2.213C-5.066,-1.873 -5.131,-1.507 -5.131,-1.116C-5.131,-0.725 -5.063,-0.358 -4.928,-0.013C-4.793,0.331 -4.606,0.629 -4.368,0.881C-4.13,1.132 -3.848,1.332 -3.521,1.481C-3.194,1.63 -2.84,1.704 -2.457,1.704C-2.065,1.704 -1.706,1.633 -1.379,1.488C-1.053,1.344 -0.772,1.146 -0.539,0.894C-0.306,0.643 -0.124,0.348 0.007,0.008C0.137,-0.332 0.203,-0.697 0.203,-1.088C0.203,-1.48 0.135,-1.847 0,-2.192ZM1.022,0.353C0.831,0.815 0.567,1.219 0.231,1.564C-0.105,1.91 -0.506,2.183 -0.973,2.384C-1.44,2.584 -1.944,2.684 -2.485,2.684C-3.026,2.684 -3.526,2.584 -3.983,2.384C-4.44,2.183 -4.837,1.912 -5.173,1.572C-5.509,1.231 -5.771,0.832 -5.957,0.374C-6.144,-0.083 -6.237,-0.568 -6.237,-1.082C-6.237,-1.595 -6.144,-2.083 -5.957,-2.545C-5.771,-3.006 -5.509,-3.41 -5.173,-3.755C-4.837,-4.101 -4.438,-4.374 -3.976,-4.574C-3.514,-4.775 -3.008,-4.876 -2.457,-4.876C-1.916,-4.876 -1.414,-4.775 -0.952,-4.574C-0.49,-4.374 -0.091,-4.103 0.245,-3.762C0.581,-3.421 0.842,-3.023 1.029,-2.566C1.215,-2.108 1.309,-1.623 1.309,-1.109C1.309,-0.596 1.213,-0.109 1.022,0.353Z" style="fill:none;fill-rule:nonzero;stroke:rgb(65,64,66);stroke-width:0.13px;"/>
        </g>
        <g transform="matrix(4.16667,0,0,4.16667,779.427,289.844)">
            <path d="M0,-5.628C0.164,-5.805 0.348,-5.96 0.553,-6.09C0.758,-6.221 0.989,-6.323 1.246,-6.398C1.503,-6.473 1.79,-6.51 2.107,-6.51C2.947,-6.51 3.605,-6.251 4.081,-5.733C4.557,-5.215 4.795,-4.503 4.795,-3.598L4.795,0.882L3.717,0.882L3.717,-3.346C3.717,-4.046 3.551,-4.585 3.22,-4.963C2.889,-5.341 2.429,-5.53 1.841,-5.53C1.57,-5.53 1.314,-5.481 1.071,-5.383C0.829,-5.285 0.616,-5.14 0.434,-4.949C0.252,-4.758 0.107,-4.522 0,-4.242C-0.107,-3.962 -0.161,-3.645 -0.161,-3.29L-0.161,0.882L-1.225,0.882L-1.225,-3.374C-1.225,-4.055 -1.391,-4.585 -1.722,-4.963C-2.053,-5.341 -2.508,-5.53 -3.087,-5.53C-3.376,-5.53 -3.642,-5.474 -3.885,-5.362C-4.127,-5.25 -4.34,-5.091 -4.522,-4.886C-4.704,-4.681 -4.846,-4.441 -4.949,-4.165C-5.052,-3.89 -5.103,-3.584 -5.103,-3.248L-5.103,0.882L-6.181,0.882L-6.181,-6.356L-5.103,-6.356L-5.103,-5.138C-4.981,-5.316 -4.849,-5.488 -4.704,-5.656C-4.559,-5.824 -4.394,-5.971 -4.207,-6.097C-4.02,-6.223 -3.81,-6.323 -3.577,-6.398C-3.344,-6.473 -3.073,-6.51 -2.765,-6.51C-2.177,-6.51 -1.691,-6.373 -1.309,-6.097C-0.926,-5.822 -0.637,-5.479 -0.441,-5.068C-0.31,-5.264 -0.163,-5.451 0,-5.628" style="fill:rgb(65,64,66);fill-rule:nonzero;"/>
        </g>
        <g transform="matrix(4.16667,0,0,4.16667,779.427,289.844)">
            <path d="M0,-5.628C0.164,-5.805 0.348,-5.96 0.553,-6.09C0.758,-6.221 0.989,-6.323 1.246,-6.398C1.503,-6.473 1.79,-6.51 2.107,-6.51C2.947,-6.51 3.605,-6.251 4.081,-5.733C4.557,-5.215 4.795,-4.503 4.795,-3.598L4.795,0.882L3.717,0.882L3.717,-3.346C3.717,-4.046 3.551,-4.585 3.22,-4.963C2.889,-5.341 2.429,-5.53 1.841,-5.53C1.57,-5.53 1.314,-5.481 1.071,-5.383C0.829,-5.285 0.616,-5.14 0.434,-4.949C0.252,-4.758 0.107,-4.522 0,-4.242C-0.107,-3.962 -0.161,-3.645 -0.161,-3.29L-0.161,0.882L-1.225,0.882L-1.225,-3.374C-1.225,-4.055 -1.391,-4.585 -1.722,-4.963C-2.053,-5.341 -2.508,-5.53 -3.087,-5.53C-3.376,-5.53 -3.642,-5.474 -3.885,-5.362C-4.127,-5.25 -4.34,-5.091 -4.522,-4.886C-4.704,-4.681 -4.846,-4.441 -4.949,-4.165C-5.052,-3.89 -5.103,-3.584 -5.103,-3.248L-5.103,0.882L-6.181,0.882L-6.181,-6.356L-5.103,-6.356L-5.103,-5.138C-4.981,-5.316 -4.849,-5.488 -4.704,-5.656C-4.559,-5.824 -4.394,-5.971 -4.207,-6.097C-4.02,-6.223 -3.81,-6.323 -3.577,-6.398C-3.344,-6.473 -3.073,-6.51 -2.765,-6.51C-2.177,-6.51 -1.691,-6.373 -1.309,-6.097C-0.926,-5.822 -0.637,-5.479 -0.441,-5.068C-0.31,-5.264 -0.163,-5.451 0,-5.628Z" style="fill:none;fill-rule:nonzero;stroke:rgb(65,64,66);stroke-width:0.13px;"/>
        </g>
        <g transform="matrix(4.16667,0,0,4.16667,834.148,291.919)">
            <path d="M0,-4.384C-0.136,-4.728 -0.32,-5.023 -0.553,-5.269C-0.787,-5.515 -1.057,-5.703 -1.365,-5.833C-1.673,-5.963 -2,-6.028 -2.345,-6.028C-2.681,-6.028 -3.005,-5.961 -3.318,-5.826C-3.631,-5.691 -3.911,-5.503 -4.158,-5.261C-4.406,-5.02 -4.602,-4.728 -4.746,-4.384C-4.891,-4.04 -4.963,-3.66 -4.963,-3.242C-4.963,-2.824 -4.891,-2.441 -4.746,-2.092C-4.602,-1.744 -4.406,-1.449 -4.158,-1.208C-3.911,-0.967 -3.631,-0.779 -3.318,-0.644C-3.005,-0.509 -2.681,-0.442 -2.345,-0.442C-2,-0.442 -1.671,-0.505 -1.358,-0.63C-1.045,-0.755 -0.775,-0.936 -0.546,-1.173C-0.317,-1.41 -0.136,-1.702 0,-2.051C0.135,-2.399 0.203,-2.791 0.203,-3.228C0.203,-3.655 0.135,-4.04 0,-4.384M1.015,-1.646C0.819,-1.179 0.56,-0.785 0.238,-0.463C-0.084,-0.141 -0.453,0.106 -0.868,0.279C-1.284,0.451 -1.71,0.538 -2.149,0.538C-2.485,0.538 -2.793,0.496 -3.073,0.412C-3.353,0.328 -3.605,0.216 -3.829,0.076C-4.053,-0.064 -4.256,-0.227 -4.438,-0.414C-4.62,-0.6 -4.781,-0.797 -4.921,-1.002L-4.921,2.624L-5.999,2.624L-5.999,-6.854L-4.921,-6.854L-4.921,-5.398C-4.772,-5.613 -4.606,-5.818 -4.424,-6.014C-4.242,-6.21 -4.039,-6.38 -3.815,-6.525C-3.591,-6.67 -3.341,-6.786 -3.066,-6.875C-2.791,-6.964 -2.485,-7.008 -2.149,-7.008C-1.72,-7.008 -1.297,-6.924 -0.882,-6.756C-0.467,-6.588 -0.096,-6.343 0.231,-6.021C0.558,-5.699 0.819,-5.304 1.015,-4.838C1.211,-4.371 1.309,-3.839 1.309,-3.242C1.309,-2.645 1.211,-2.113 1.015,-1.646" style="fill:rgb(65,64,66);fill-rule:nonzero;"/>
        </g>
        <g transform="matrix(4.16667,0,0,4.16667,834.148,291.919)">
            <path d="M0,-4.384C-0.136,-4.728 -0.32,-5.023 -0.553,-5.269C-0.787,-5.515 -1.057,-5.703 -1.365,-5.833C-1.673,-5.963 -2,-6.028 -2.345,-6.028C-2.681,-6.028 -3.005,-5.961 -3.318,-5.826C-3.631,-5.691 -3.911,-5.503 -4.158,-5.261C-4.406,-5.02 -4.602,-4.728 -4.746,-4.384C-4.891,-4.04 -4.963,-3.66 -4.963,-3.242C-4.963,-2.824 -4.891,-2.441 -4.746,-2.092C-4.602,-1.744 -4.406,-1.449 -4.158,-1.208C-3.911,-0.967 -3.631,-0.779 -3.318,-0.644C-3.005,-0.509 -2.681,-0.442 -2.345,-0.442C-2,-0.442 -1.671,-0.505 -1.358,-0.63C-1.045,-0.755 -0.775,-0.936 -0.546,-1.173C-0.317,-1.41 -0.136,-1.702 0,-2.051C0.135,-2.399 0.203,-2.791 0.203,-3.228C0.203,-3.655 0.135,-4.04 0,-4.384ZM1.015,-1.646C0.819,-1.179 0.56,-0.785 0.238,-0.463C-0.084,-0.141 -0.453,0.106 -0.868,0.279C-1.284,0.451 -1.71,0.538 -2.149,0.538C-2.485,0.538 -2.793,0.496 -3.073,0.412C-3.353,0.328 -3.605,0.216 -3.829,0.076C-4.053,-0.064 -4.256,-0.227 -4.438,-0.414C-4.62,-0.6 -4.781,-0.797 -4.921,-1.002L-4.921,2.624L-5.999,2.624L-5.999,-6.854L-4.921,-6.854L-4.921,-5.398C-4.772,-5.613 -4.606,-5.818 -4.424,-6.014C-4.242,-6.21 -4.039,-6.38 -3.815,-6.525C-3.591,-6.67 -3.341,-6.786 -3.066,-6.875C-2.791,-6.964 -2.485,-7.008 -2.149,-7.008C-1.72,-7.008 -1.297,-6.924 -0.882,-6.756C-0.467,-6.588 -0.096,-6.343 0.231,-6.021C0.558,-5.699 0.819,-5.304 1.015,-4.838C1.211,-4.371 1.309,-3.839 1.309,-3.242C1.309,-2.645 1.211,-2.113 1.015,-1.646Z" style="fill:none;fill-rule:nonzero;stroke:rgb(65,64,66);stroke-width:0.13px;"/>
        </g>
        <g transform="matrix(4.16667,0,0,4.16667,852.481,277.181)">
            <path d="M0,0.658C-0.363,0.929 -0.544,1.298 -0.544,1.764C-0.544,1.998 -0.495,2.203 -0.397,2.38C-0.3,2.557 -0.167,2.709 0,2.835C0.167,2.961 0.36,3.057 0.579,3.122C0.798,3.188 1.028,3.22 1.27,3.22C1.604,3.22 1.918,3.171 2.212,3.073C2.505,2.975 2.761,2.84 2.979,2.667C3.198,2.494 3.37,2.289 3.496,2.051C3.621,1.813 3.684,1.55 3.684,1.26L3.684,0.56C3.414,0.486 3.104,0.416 2.756,0.35C2.407,0.285 2.009,0.252 1.563,0.252C0.884,0.252 0.363,0.387 0,0.658M0.345,-2.317C-0.005,-2.219 -0.348,-2.091 -0.684,-1.932L-1.006,-2.814C-0.605,-3 -0.199,-3.147 0.212,-3.255C0.623,-3.362 1.094,-3.416 1.626,-3.416C2.615,-3.416 3.376,-3.171 3.908,-2.681C4.44,-2.191 4.706,-1.465 4.706,-0.504L4.706,3.92L3.67,3.92L3.67,2.828C3.418,3.155 3.08,3.444 2.655,3.696C2.23,3.948 1.696,4.074 1.052,4.074C0.716,4.074 0.387,4.028 0.065,3.934C-0.257,3.841 -0.546,3.699 -0.803,3.507C-1.06,3.316 -1.265,3.08 -1.419,2.8C-1.573,2.52 -1.65,2.189 -1.65,1.806C-1.65,1.424 -1.576,1.085 -1.426,0.791C-1.277,0.497 -1.064,0.252 -0.789,0.056C-0.514,-0.14 -0.187,-0.289 0.191,-0.392C0.569,-0.494 0.986,-0.546 1.444,-0.546C1.911,-0.546 2.316,-0.518 2.662,-0.462C3.007,-0.406 3.343,-0.331 3.67,-0.238L3.67,-0.49C3.67,-1.143 3.481,-1.635 3.103,-1.967C2.725,-2.298 2.195,-2.464 1.514,-2.464C1.084,-2.464 0.695,-2.415 0.345,-2.317" style="fill:rgb(65,64,66);fill-rule:nonzero;"/>
        </g>
        <g transform="matrix(4.16667,0,0,4.16667,852.481,277.181)">
            <path d="M0,0.658C-0.363,0.929 -0.544,1.298 -0.544,1.764C-0.544,1.998 -0.495,2.203 -0.397,2.38C-0.3,2.557 -0.167,2.709 0,2.835C0.167,2.961 0.36,3.057 0.579,3.122C0.798,3.188 1.028,3.22 1.27,3.22C1.604,3.22 1.918,3.171 2.212,3.073C2.505,2.975 2.761,2.84 2.979,2.667C3.198,2.494 3.37,2.289 3.496,2.051C3.621,1.813 3.684,1.55 3.684,1.26L3.684,0.56C3.414,0.486 3.104,0.416 2.756,0.35C2.407,0.285 2.009,0.252 1.563,0.252C0.884,0.252 0.363,0.387 0,0.658ZM0.345,-2.317C-0.005,-2.219 -0.348,-2.091 -0.684,-1.932L-1.006,-2.814C-0.605,-3 -0.199,-3.147 0.212,-3.255C0.623,-3.362 1.094,-3.416 1.626,-3.416C2.615,-3.416 3.376,-3.171 3.908,-2.681C4.44,-2.191 4.706,-1.465 4.706,-0.504L4.706,3.92L3.67,3.92L3.67,2.828C3.418,3.155 3.08,3.444 2.655,3.696C2.23,3.948 1.696,4.074 1.052,4.074C0.716,4.074 0.387,4.028 0.065,3.934C-0.257,3.841 -0.546,3.699 -0.803,3.507C-1.06,3.316 -1.265,3.08 -1.419,2.8C-1.573,2.52 -1.65,2.189 -1.65,1.806C-1.65,1.424 -1.576,1.085 -1.426,0.791C-1.277,0.497 -1.064,0.252 -0.789,0.056C-0.514,-0.14 -0.187,-0.289 0.191,-0.392C0.569,-0.494 0.986,-0.546 1.444,-0.546C1.911,-0.546 2.316,-0.518 2.662,-0.462C3.007,-0.406 3.343,-0.331 3.67,-0.238L3.67,-0.49C3.67,-1.143 3.481,-1.635 3.103,-1.967C2.725,-2.298 2.195,-2.464 1.514,-2.464C1.084,-2.464 0.695,-2.415 0.345,-2.317Z" style="fill:none;fill-rule:nonzero;stroke:rgb(65,64,66);stroke-width:0.13px;"/>
        </g>
        <g transform="matrix(4.16667,0,0,4.16667,886.148,262.719)">
            <path d="M0,7.392L-1.078,7.392L-1.078,0.154L0,0.154L0,1.414C0.242,1.022 0.56,0.688 0.952,0.413C1.344,0.138 1.853,0 2.478,0C2.917,0 3.306,0.07 3.647,0.21C3.987,0.35 4.277,0.548 4.515,0.805C4.753,1.062 4.935,1.368 5.061,1.722C5.187,2.077 5.25,2.469 5.25,2.898L5.25,7.392L4.172,7.392L4.172,3.164C4.172,2.492 3.999,1.96 3.654,1.568C3.309,1.176 2.814,0.98 2.17,0.98C1.862,0.98 1.575,1.034 1.309,1.141C1.043,1.248 0.812,1.402 0.616,1.603C0.42,1.804 0.268,2.044 0.161,2.324C0.053,2.604 0,2.912 0,3.248L0,7.392Z" style="fill:rgb(65,64,66);fill-rule:nonzero;stroke:rgb(65,64,66);stroke-width:0.13px;"/>
        </g>
        <g transform="matrix(4.16667,0,0,4.16667,931.414,271.873)">
            <path d="M0,5.432C-0.308,6.179 -0.651,6.706 -1.029,7.014C-1.407,7.322 -1.867,7.476 -2.408,7.476C-2.707,7.476 -2.978,7.446 -3.22,7.385C-3.463,7.325 -3.706,7.233 -3.948,7.112L-3.584,6.258C-3.407,6.351 -3.232,6.419 -3.059,6.461C-2.886,6.503 -2.683,6.524 -2.45,6.524C-2.124,6.524 -1.848,6.426 -1.624,6.23C-1.4,6.034 -1.181,5.68 -0.966,5.166L-4.256,-2.044L-3.066,-2.044L-0.434,3.99L1.89,-2.044L3.038,-2.044L0,5.432Z" style="fill:rgb(65,64,66);fill-rule:nonzero;stroke:rgb(65,64,66);stroke-width:0.13px;"/>
        </g>
    </g>
</svg>
